<svg width="13" height="21" viewBox="0 0 13 21" fill="none" xmlns="http://www.w3.org/2000/svg">
<path d="M5.65149 18.242C4.50749 18.154 3.52482 17.8973 2.70348 17.472C1.89682 17.032 1.23682 16.4673 0.723485 15.778L2.46148 13.996C3.42949 15.0813 4.54415 15.6973 5.80549 15.844V11.29L5.29948 11.202C4.58082 11.07 3.95749 10.872 3.42949 10.608C2.91615 10.344 2.49082 10.0213 2.15348 9.64C1.83082 9.25867 1.58882 8.83333 1.42748 8.364C1.28082 7.89467 1.20748 7.38867 1.20748 6.846C1.20748 5.59933 1.58882 4.59467 2.35149 3.832C3.12882 3.06933 4.22882 2.60733 5.65149 2.446V0.157999H7.80749V2.424C8.76082 2.54133 9.57482 2.78333 10.2495 3.15C10.9388 3.51667 11.5182 3.99333 11.9875 4.58L10.2495 6.362C9.57482 5.55533 8.70949 5.064 7.65349 4.888V9.068L8.20348 9.156C9.64082 9.42 10.6822 9.93333 11.3275 10.696C11.9728 11.444 12.2955 12.368 12.2955 13.468C12.2955 14.7147 11.9068 15.756 11.1295 16.592C10.3668 17.4133 9.25949 17.934 7.80749 18.154V20.486H5.65149V18.242ZM3.91349 6.758C3.91349 7.30067 4.06015 7.71867 4.35349 8.012C4.64682 8.30533 5.13082 8.53267 5.80549 8.694V4.822C4.54415 4.998 3.91349 5.64333 3.91349 6.758ZM9.61149 13.644C9.61149 13.0573 9.45749 12.6173 9.14949 12.324C8.84149 12.016 8.34282 11.7887 7.65349 11.642V15.822C8.31349 15.7047 8.80482 15.4627 9.12749 15.096C9.45015 14.7293 9.61149 14.2453 9.61149 13.644Z" fill="#A9C3C6"/>
</svg>
